<svg width="1903" height="1220" viewBox="0 0 1903 1220" fill="none" xmlns="http://www.w3.org/2000/svg">
<path d="M2263 32.909C2256.71 37.4214 2249.98 41.8174 2242.82 46.0976L2242.81 46.1035C2233.56 51.5728 2223.65 56.8541 2213.1 61.9481L2212.58 62.1966H2212.35C2203.27 65.9755 2193.78 69.6457 2183.9 73.2074L2183.11 71.0167L2183.9 73.2079C2127.62 93.4567 2062.03 109.151 1989.11 121.187L1988.7 118.72L1989.11 121.187C1873.97 140.185 1751.88 149.132 1625.34 151.551C1587.16 152.296 1548.92 152.628 1510.77 151.418C1455.5 149.677 1401.71 145.483 1348.52 140.015C1258.31 130.753 1171.75 118.212 1086.17 104.799C1023.83 95.0267 962.207 84.729 900.584 74.4315C861.04 67.8235 821.497 61.2156 781.767 54.7468C700.387 41.5532 618.331 28.9111 533.176 18.8513C433.596 7.17861 333.111 1.849 232.576 2.90807L232.571 2.90812C173.94 3.41539 115.973 5.72018 58.6693 9.82228C-30.6622 16.3238 -116.057 26.578 -195.249 42.4787C-234.466 50.4086 -270.881 59.4043 -301.5 70.7845V1057.33L-298.327 1056.88C-298.322 1056.88 -298.316 1056.88 -298.31 1056.88C-195.81 1040.7 -87.531 1033.58 24.0872 1032.02M2263 32.909L-297.938 1059.35C-195.584 1043.19 -87.4237 1036.08 24.1221 1034.52C77.3066 1033.69 130.412 1034.35 183.439 1036.17C243.71 1038.26 302.78 1042.3 360.413 1048.82C433.261 1057.07 501.523 1068.84 568.447 1081.59C622.893 1091.95 676.672 1102.72 730.457 1113.49C771.773 1121.76 813.093 1130.04 854.722 1138.13C938.416 1154.42 1022.72 1170.3 1111.53 1183.1C1259.63 1204.45 1412.19 1219.04 1573.8 1220H1597.81M2263 32.909L2260.99 38.8123L2263.42 37.335M2263 32.909L2263.42 37.335M24.0872 1032.02L24.122 1034.51L24.0832 1032.02C24.0846 1032.02 24.0859 1032.02 24.0872 1032.02ZM24.0872 1032.02C77.3169 1031.19 130.463 1031.85 183.526 1033.68C243.851 1035.76 302.987 1039.81 360.694 1046.34C433.632 1054.59 501.963 1066.38 568.914 1079.13C623.361 1089.5 677.177 1100.27 730.985 1111.05C772.301 1119.32 813.611 1127.59 855.199 1135.67L854.731 1138.08L855.199 1135.67C938.887 1151.97 1023.14 1167.83 1111.89 1180.62C1259.9 1201.97 1412.35 1216.54 1573.81 1217.5M1573.81 1217.5H1573.8V1219.99L1573.81 1217.5ZM1573.81 1217.5H1597.8M1597.8 1217.5L1597.81 1220M1597.8 1217.5H1597.81V1220M1597.8 1217.5C1622.36 1217.42 1646.85 1216.89 1671.34 1216.04L1671.34 1216.04C1727.98 1214.2 1784.47 1209.84 1840.56 1202.97M1597.81 1220C1622.39 1219.92 1646.92 1219.39 1671.43 1218.54C1728.14 1216.7 1784.7 1212.33 1840.86 1205.45M1840.56 1202.97C1840.55 1202.97 1840.55 1202.97 1840.55 1202.97L1840.86 1205.45M1840.56 1202.97C1953.01 1188.88 2047.7 1165.71 2126.02 1134.65L2126.94 1136.97L2126.02 1134.65C2190.72 1109 2236.64 1080.6 2263.42 1049.57V37.335M1840.56 1202.97L1840.86 1205.45M1840.86 1205.45L2263.42 37.335" stroke="white" stroke-width="5"/>
</svg>
