<svg width="1903" height="1305" viewBox="0 0 1903 1305" fill="none" xmlns="http://www.w3.org/2000/svg">
<path d="M0.276855 35.1089L0.0144043 34.8786V1123.63C20.0699 1157.6 54.5548 1188.44 102.93 1216.15C161.1 1249.48 231.382 1274.32 314.766 1289.41C356.355 1296.77 398.235 1301.45 440.23 1303.42C458.376 1304.33 476.537 1304.89 494.741 1304.98H512.523C632.186 1303.95 745.158 1288.35 854.822 1265.5C920.586 1251.8 983.012 1234.82 1044.99 1217.39C1115.94 1197.46 1185.68 1176.5 1256.97 1156.89C1306.52 1143.25 1357.07 1130.66 1411.01 1121.84C1453.69 1114.86 1497.43 1110.54 1542.06 1108.3C1581.32 1106.36 1620.65 1105.65 1660.03 1106.53C1742.63 1108.2 1822.72 1115.82 1898.51 1133.1L1903 1134.01V73.5657C1879.94 61.0066 1852.42 51.1577 1822.84 42.5133C1764.1 25.4725 1700.78 14.4899 1634.58 7.52837C1592.11 3.13533 1549.15 0.667191 1505.69 0.123965C1431.17 -1.01035 1356.68 4.69796 1282.87 17.2002C1219.77 27.9702 1158.98 41.5036 1098.71 55.6216C1023.41 73.3355 949.095 92.0059 873.318 109.171C809.96 123.519 745.902 136.928 679.147 146.83C639.794 152.676 600.004 157.158 559.135 159.018C530.932 160.311 502.656 159.956 474.394 159.159C380.749 156.573 290.44 147.008 205.292 126.707C151.364 113.847 102.916 97.0898 61.3761 75.4966C53.9622 71.6349 46.8544 67.6552 40.0526 63.5574H39.9359C32.1625 58.1369 24.8749 52.5217 18.0731 46.7115C12.4374 41.8461 7.17578 36.8449 2.28821 31.7078C1.77808 31.1587 1.19507 30.645 0.0581055 29.5644C-0.0765381 31.1841 -0.0765381 32.8161 0.0581055 34.4358C0.174805 34.6129 0.218628 34.8609 0.276855 35.1089Z" fill="url(#paint0_linear_344_2460)"/>
<defs>
<linearGradient id="paint0_linear_344_2460" x1="-2094.62" y1="-1030.18" x2="2707.91" y2="1748.77" gradientUnits="userSpaceOnUse">
<stop stop-color="#A74444"/>
<stop offset="0.2" stop-color="#BA645C"/>
<stop offset="0.4" stop-color="#CC8477"/>
<stop offset="0.6" stop-color="#DEA394"/>
<stop offset="0.8" stop-color="#EFC2B4"/>
<stop offset="1" stop-color="#FFE2D7"/>
</linearGradient>
</defs>
</svg>
